<svg xmlns="http://www.w3.org/2000/svg" viewBox="0 0 512 512"><rect width="512" height="512" rx="52" fill="#fff0f3"/><path d="M188 224c18-40 49-56 68-56s50 16 68 56c16 35 18 85-8 125-24 37-53 55-60 55s-36-18-60-55c-26-40-24-90-8-125z" fill="#ef4551"/><path d="M184 206c26-34 47-49 72-49s46 15 72 49" fill="#54b85f"/><circle cx="224" cy="264" r="6" fill="#ffd36f"/><circle cx="266" cy="246" r="6" fill="#ffd36f"/><circle cx="294" cy="286" r="6" fill="#ffd36f"/><circle cx="238" cy="312" r="6" fill="#ffd36f"/><circle cx="282" cy="334" r="6" fill="#ffd36f"/></svg>